<?xml version="1.0" encoding="UTF-8" standalone="no"?>
<!DOCTYPE svg PUBLIC "-//W3C//DTD SVG 1.1//EN" "http://www.w3.org/Graphics/SVG/1.1/DTD/svg11.dtd">
<!-- Created with Vectornator (http://vectornator.io/) -->
<svg height="100%" stroke-miterlimit="10" style="fill-rule:nonzero;clip-rule:evenodd;stroke-linecap:round;stroke-linejoin:round;" version="1.1" viewBox="0 0 110 106" width="100%" xml:space="preserve" xmlns="http://www.w3.org/2000/svg" xmlns:xlink="http://www.w3.org/1999/xlink">
<defs>
<linearGradient gradientTransform="matrix(1 0 0 1 0.047437 2.5638)" gradientUnits="userSpaceOnUse" id="LinearGradient" x1="4.15072" x2="105.147" y1="49.4554" y2="49.4554">
<stop offset="0" stop-color="#4ee64b"/>
<stop offset="1" stop-color="#06300d"/>
</linearGradient>
</defs>
<g id="Untitled">
<path d="M66.9255 3.63129C66.438 3.73229 65.8795 3.93533 65.6845 4.08332C65.4895 4.23096 64.8988 4.45364 64.3723 4.57814C63.0944 4.87973 60.0663 7.96786 59.0526 10.0032C58.2463 11.622 58.2385 11.7668 58.2385 25.1097C58.2385 38.4606 58.3871 40.1488 59.3763 38.0359C59.582 37.5969 61.1251 35.3055 62.8058 32.9436C64.4868 30.5818 65.8618 28.4117 65.8618 28.1217C65.8618 27.8314 66.0019 27.5939 66.1728 27.5939C66.5521 27.5939 67.9715 24.49 68.5778 22.3337C69.1324 20.3618 69.171 17.8638 68.6693 16.4401C68.4583 15.8414 68.3495 15.0685 68.4278 14.722C68.5303 14.2686 68.7416 14.4839 69.1838 15.4925C69.9691 17.2838 70.2826 21.5583 69.8266 24.2624C69.6117 25.5375 69.6 26.4988 69.7968 26.7021C70.0018 26.914 70.8747 26.6699 72.1579 26.0425C74.7225 24.7885 75.1207 24.6412 77.8232 23.9507C80.3485 23.3054 81.6037 23.2276 81.2856 23.7364C81.1651 23.9293 80.7545 24.0871 80.3733 24.0871C79.9921 24.0871 79.4032 24.227 79.0646 24.3985C78.726 24.5696 77.4917 25.1518 76.3216 25.6922C73.178 27.1444 71.2786 28.5106 68.6282 31.227C66.5578 33.349 63.0252 38.3193 63.0252 39.1101C63.0252 39.2616 62.7292 40.0068 62.3668 40.7664C61.4229 42.7463 59.9876 47.0868 59.5327 49.3364C58.2814 55.5232 57.6854 62.742 58.3906 63.173C58.664 63.3403 59.6944 62.5285 61.2176 60.9451C62.5359 59.575 63.7876 58.4542 63.9992 58.4542C64.2113 58.4542 64.4375 58.321 64.5027 58.1579C64.5676 57.9948 65.4984 57.2577 66.5709 56.5198C67.6435 55.782 69.2143 54.5346 70.0613 53.748C71.681 52.2432 74.0169 48.944 74.0169 48.1606C74.0169 47.9074 74.1283 47.5896 74.2641 47.4553C74.8824 46.8437 75.7735 42.2266 75.7962 39.5172C75.8206 36.5785 75.8277 36.5553 76.3004 37.8662C76.5642 38.5974 76.8836 39.7417 77.0102 40.4087C77.1368 41.0757 77.4463 41.6213 77.6981 41.6213C77.9498 41.6213 78.7802 40.8512 79.5433 39.9103C80.8917 38.2478 84.2009 35.6597 84.9781 35.6597C85.1898 35.6597 85.3632 35.5019 85.3632 35.309C85.3632 35.1161 85.7139 34.9583 86.1422 34.9583C86.796 34.9583 86.6882 35.1277 85.4724 36.0121C82.4252 38.2285 78.7565 43.7938 76.5067 49.6124C75.5504 52.0858 75.5668 52.6434 76.5876 52.3278C79.4695 51.437 83.9442 50.7749 88.377 50.5834C92.4011 50.4095 92.3319 50.459 86.9588 51.6025C80.8006 52.913 73.9559 55.823 69.7621 58.914C67.0929 60.881 62.3161 65.6745 62.3161 66.3857C62.3161 66.6525 62.186 66.8707 62.0271 66.8707C61.6346 66.8707 60.5351 69.2006 60.8024 69.465C61.1176 69.7768 62.2374 69.7214 62.9416 69.3595C64.0393 68.7952 68.0853 68.2653 71.5349 68.2348C73.6726 68.2155 75.3058 68.0191 76.005 67.6969C78.1821 66.6932 80.2577 63.7369 80.768 60.9129C80.9885 59.6918 81.0257 60.0109 80.9303 62.3118C80.8623 63.9512 80.7552 65.766 80.6917 66.3446C80.5818 67.3493 80.6325 67.3925 81.8175 67.3041C85.4001 67.0372 90.0864 64.7809 93.2524 61.799C93.7885 61.2941 94.2275 61.0163 94.2275 61.1825C94.2275 61.5697 91.8146 64.3948 90.769 65.2319C90.329 65.5843 89.7397 66.0991 89.4595 66.3762C88.1083 67.7126 83.8655 69.4829 78.9809 70.7482C78.1034 70.9754 77.1861 71.217 76.9421 71.2847C76.1699 71.499 76.4362 71.904 79.1582 74.658C80.6208 76.1379 81.8175 77.6013 81.8175 77.9102C81.8175 78.336 81.582 78.2476 80.8424 77.543C79.3231 76.0961 75.4242 73.7164 73.6624 73.1605C72.7745 72.8803 70.8088 72.671 69.2302 72.6882C65.8742 72.7246 63.8833 73.5126 61.6325 75.6949C58.8331 78.4089 57.9347 81.5096 58.1247 87.8009C58.2495 91.9295 58.3449 92.4622 59.3005 94.3486C61.2308 98.1602 64.6641 100.279 69.2345 100.478C71.6594 100.583 72.3671 100.474 74.0701 99.7288C76.5028 98.6648 79.1274 96.1816 80.0868 94.0358C80.479 93.159 80.9108 91.4617 81.0466 90.2645L81.2934 88.0871L82.5305 88.26C86.4116 88.8028 89.6893 88.2053 92.2773 86.4827C94.4005 85.0694 95.2075 84.0805 96.5109 81.2936C97.2388 79.7376 97.2512 75.0065 96.5322 73.3043C96.2396 72.6117 96.0003 71.9381 96.0003 71.8065C96.0003 71.6754 96.8016 71.283 97.7813 70.9347C100.313 70.0342 103.483 66.8749 104.468 64.2703C106.171 59.7686 104.823 54.7089 101.014 51.3083L100.277 50.6501L101.507 49.2284C103.739 46.6491 104.51 44.6523 104.51 41.446C104.51 39.0901 104.352 38.2905 103.591 36.7805C102.408 34.4312 100.163 32.1602 98.0012 31.125C96.4556 30.385 96.3127 30.2171 96.5215 29.3884C97.1002 27.089 97.1275 26.3311 96.6963 24.4834C96.0475 21.7038 95.2674 20.3043 93.2953 18.3832C90.5325 15.6913 86.4691 14.5955 82.4834 15.4669L81.1995 15.7478L80.9509 13.455C80.713 11.2562 79.2522 8.12461 77.8552 6.81726C76.9563 5.97632 74.897 4.59778 73.8957 4.16678C72.7816 3.6874 68.3154 3.34443 66.9255 3.63129ZM36.2307 4.22009C32.0783 5.56672 28.8464 9.56558 28.5337 13.744C28.4401 14.9952 28.1997 15.8716 27.9252 15.9621C27.676 16.0441 26.6158 15.9221 25.5698 15.6906C23.1435 15.1537 20.5292 15.6815 17.9068 17.2379C13.8413 19.6506 11.9447 24.0282 12.8106 29.0012L13.0861 30.5839L11.4568 31.3666C9.24684 32.4288 6.95135 34.5901 5.91246 36.588C5.18878 37.9798 5.05298 38.7429 5.05369 41.4214C5.05404 44.1891 5.17637 44.8301 5.99543 46.3556C6.51346 47.32 7.43038 48.5726 8.03386 49.139C8.63698 49.7053 9.13054 50.3509 9.13054 50.5729C9.13054 50.7953 8.48735 51.5657 7.70127 52.285C5.70078 54.1159 4.51829 56.6773 4.27363 59.7104C4.0967 61.9032 4.1857 62.4412 5.03348 64.3103C6.22094 66.9271 8.27142 68.9509 11.1693 70.3666C13.5215 71.5155 13.7605 71.9647 12.8535 73.5337C12.155 74.7421 12.188 78.7782 12.9145 81.0075C13.3676 82.3972 14.0452 83.3441 15.7847 85.0186C17.0374 86.2243 18.3341 87.2104 18.6667 87.2104C18.9993 87.2104 19.4563 87.3934 19.6825 87.6172C20.1725 88.1018 24.6501 88.2095 26.7158 87.7862L28.1681 87.4888L28.3855 89.7921C28.7946 94.1266 31.2288 97.6454 35.0081 99.3658C36.6934 100.133 37.3306 100.233 39.7948 100.116C43.2253 99.9525 45.252 99.1098 47.3873 96.9591C49.3282 95.0044 50.1958 93.0924 50.7021 89.655C51.1656 86.5108 50.7227 82.2212 49.6345 79.3179C48.3584 75.9124 43.6324 72.8288 39.6987 72.8351C35.9002 72.8411 31.3497 75.0346 27.6352 78.6502C26.5608 79.6963 25.6163 80.4874 25.5365 80.4085C25.1482 80.0241 28.6273 75.2264 30.654 73.3517C31.4919 72.5763 32.1776 71.8339 32.1776 71.7017C32.1776 71.5695 31.5794 71.3615 30.848 71.2398C26.6126 70.5343 21.4125 68.3439 18.9883 66.244C16.6417 64.2114 14.0945 61.0823 14.0945 60.2322C14.0945 59.6651 14.1927 59.7272 16.1397 61.5227C19.3077 64.4446 20.1562 64.9331 24.5061 66.3408C27.1388 67.1929 28.9109 67.2501 28.422 66.4677C28.3007 66.2738 27.9919 65.22 27.7359 64.1258C27.2558 62.0768 27.4388 59.9264 28.2043 58.6208C28.5574 58.0187 28.6117 58.1176 28.6213 59.3783C28.6354 61.2941 29.6201 64.2412 30.5714 65.2144C33.0087 67.7081 33.0502 67.7232 38.3826 67.9974C44.272 68.3004 45.9977 68.5434 46.7231 69.1725C47.0199 69.43 47.4521 69.525 47.6837 69.3837C48.413 68.9379 46.148 65.5777 43.0431 62.4994C39.6597 59.1451 34.7713 56.1113 29.8729 54.3263C28.1178 53.6867 26.3626 53.0288 25.9726 52.8647C25.5826 52.7005 24.3061 52.3821 23.136 52.1577C21.966 51.9329 20.5186 51.6008 19.9197 51.4195C19.3209 51.2382 18.4234 51.0898 17.9253 51.0898C17.4271 51.0898 16.4886 50.9846 15.8397 50.8563C13.9133 50.4754 15.5621 50.0907 19.2358 50.0637C22.2684 50.0416 26.0024 50.5151 30.4817 51.49C31.5968 51.7326 32.6173 51.8242 32.7495 51.693C33.1005 51.3458 30.553 45.5273 28.7056 42.4577C26.8066 39.3016 24.5767 36.9576 21.8064 35.2049C20.0304 34.0813 19.2421 33.2049 20.007 33.2049C20.536 33.2049 25.3979 35.7435 26.0893 36.3804C26.4963 36.7556 26.9721 37.0624 27.1466 37.0624C27.321 37.0624 28.3933 38.0419 29.5297 39.2388L31.5957 41.4155L32.0092 39.5018C32.5112 37.1792 33.1821 35.4844 33.4828 35.7814C33.6044 35.902 33.7398 37.6993 33.7838 39.7753C33.8629 43.5256 34.4298 46.0007 35.9736 49.3364C37.1136 51.8 39.7051 54.3365 43.5313 56.7341C44.0227 57.042 45.8165 58.5969 47.5174 60.1894C49.9122 62.431 50.6592 62.9574 50.828 62.5218C50.9482 62.2125 50.9383 61.5339 50.8064 61.0135C50.6741 60.4931 50.4284 58.4027 50.2603 56.3676C49.9366 52.4515 49.6849 51.1589 48.2081 45.8296C47.1756 42.1025 44.7893 37.0824 42.7913 34.4323C41.2571 32.398 38.0975 28.9967 37.7415 28.9967C37.6075 28.9967 36.7395 28.4612 35.8127 27.8065C33.4399 26.1305 28.828 24.0871 27.4185 24.0871C26.692 24.0871 25.7953 23.5046 25.7953 23.0326C25.7953 22.8176 30.631 23.4299 32.8531 23.9268C33.5172 24.0752 35.1719 24.7317 36.5303 25.3853C37.8887 26.039 39.0722 26.5026 39.1605 26.4156C39.2484 26.3283 39.1502 25.6504 38.9421 24.9091C38.4634 23.2034 38.4432 17.8873 38.9144 17.5994C39.1094 17.4802 39.269 17.0713 39.269 16.6904C39.269 15.8681 40.8529 12.6716 41.4372 12.3143C41.8921 12.0362 41.7556 13.1008 41.0294 15.4953C40.2217 18.1595 40.2228 20.0805 41.0341 22.5879C41.8957 25.2517 43.9699 29.2527 45.6662 31.5234C46.2853 32.3517 47.6518 34.2815 48.7034 35.8115C49.7551 37.3416 50.6273 38.3673 50.6422 38.091C50.6575 37.8147 50.6709 31.8162 50.6727 24.7608C50.6759 12.3472 50.6514 11.8815 49.9107 10.3231C48.9608 8.32415 46.3335 5.72032 44.2702 4.73244C42.3403 3.80838 38.2954 3.55063 36.2307 4.22009Z" fill="url(#LinearGradient)" fill-rule="evenodd" opacity="1" stroke="none"/>
</g>
</svg>
